<?xml version="1.0" standalone="no"?>
<!DOCTYPE svg PUBLIC "-//W3C//DTD SVG 20010904//EN"
 "http://www.w3.org/TR/2001/REC-SVG-20010904/DTD/svg10.dtd">
<svg version="1.0" xmlns="http://www.w3.org/2000/svg"
 width="436.000000pt" height="436.000000pt" viewBox="0 0 436.000000 436.000000"
 preserveAspectRatio="xMidYMid meet">
<metadata>
Created by potrace 1.14, written by Peter Selinger 2001-2017
</metadata>
<g transform="translate(0.000000,436.000000) scale(0.100000,-0.100000)"
fill="#000000" stroke="none">
<path d="M10 2180 l0 -2180 2175 0 2175 0 0 2180 0 2180 -2175 0 -2175 0 0
-2180z m1127 658 c4 -7 -2 -9 -18 -5 -13 4 -30 7 -37 7 -11 0 -52 56 -52 72 0
9 97 -59 107 -74z m2083 -38 c0 -11 -70 -60 -85 -60 -11 1 66 70 78 70 4 0 7
-4 7 -10z m-2703 -1132 c-3 -8 -6 -5 -6 6 -1 11 2 17 5 13 3 -3 4 -12 1 -19z
m153 -52 c0 -6 -7 -2 -15 8 -8 11 -15 25 -15 30 0 6 7 2 15 -8 8 -11 15 -25
15 -30z m2940 -3 c-11 -17 -11 -17 -6 0 3 10 7 26 7 35 1 15 2 15 6 0 2 -10
-1 -25 -7 -35z m-2691 -44 c6 -18 11 -41 10 -53 0 -15 -6 -10 -20 19 -20 44
-24 65 -10 65 5 0 14 -14 20 -31z m2470 -109 c-12 -145 -37 -302 -60 -376 -23
-74 -44 -97 -36 -38 4 22 9 77 12 124 10 142 26 263 41 299 8 18 14 39 14 47
0 7 5 25 10 40 20 51 28 10 19 -96z m187 55 c-9 -34 -100 -188 -132 -222 -15
-15 -22 -21 -16 -13 5 8 38 70 73 138 60 115 89 153 75 97z m-2838 -79 c13
-32 21 -61 18 -63 -3 -3 -44 92 -65 152 -14 40 30 -42 47 -89z m2436 -2 c29
-76 -60 -308 -200 -520 -29 -44 -60 -86 -67 -93 -8 -6 12 53 45 131 33 79 75
190 94 247 18 57 38 109 42 115 5 6 12 23 15 37 20 81 56 123 71 83z m-1888
-99 c19 -38 34 -74 34 -80 0 -5 7 -19 16 -30 13 -18 14 -17 8 13 -4 18 -3 32
2 32 15 0 61 -82 79 -140 10 -30 32 -98 51 -150 18 -52 43 -131 55 -175 11
-44 25 -89 31 -100 5 -11 -7 -2 -26 20 -37 42 -176 267 -176 285 0 6 -19 47
-41 93 -39 77 -114 250 -126 290 -3 9 0 24 7 32 11 14 15 14 33 -2 11 -10 35
-49 53 -88z m-261 -110 c43 -130 82 -282 73 -290 -5 -5 -107 294 -129 380 -42
159 -11 109 56 -90z m987 145 c23 -19 41 -45 48 -68 13 -48 13 -358 0 -487 -6
-55 -14 -136 -18 -180 l-8 -80 -22 69 c-12 37 -22 85 -22 105 0 20 -7 81 -16
136 -16 106 -31 492 -21 519 9 22 17 20 59 -14z m868 -12 c0 -56 -31 -159 -92
-308 -64 -156 -178 -379 -205 -401 -15 -13 -15 -12 -5 7 6 11 22 65 36 120 14
54 34 127 45 161 11 34 23 94 26 135 12 126 55 269 89 297 17 15 85 31 99 24
4 -2 7 -18 7 -35z m-1186 1 c14 -17 29 -43 34 -57 10 -39 7 -503 -5 -531 -9
-22 -11 -19 -26 36 -10 33 -21 93 -27 134 -5 41 -21 139 -35 219 -14 79 -25
158 -25 175 0 61 43 73 84 24z m800 -51 c13 -21 -21 -163 -65 -274 -16 -39
-36 -105 -45 -145 -32 -143 -115 -381 -128 -368 -4 4 24 236 43 355 4 30 9 89
10 131 1 50 11 107 27 156 13 43 22 82 19 87 -3 5 1 14 8 22 8 7 19 24 26 36
10 19 19 23 53 20 26 -2 45 -10 52 -20z m-1337 -250 c-3 -8 -6 -5 -6 6 -1 11
2 17 5 13 3 -3 4 -12 1 -19z m716 -124 c5 -95 2 -124 -13 -124 -10 0 -17 99
-12 168 6 83 19 61 25 -44z m-551 1 c-8 -12 -20 56 -13 70 3 5 8 -6 12 -25 4
-19 4 -39 1 -45z m1193 -62 c-3 -18 -10 -33 -15 -33 -14 0 -12 73 3 128 l12
47 3 -55 c2 -30 1 -70 -3 -87z"/>
</g>
</svg>
